<svg width="1331" height="385" viewBox="0 0 1331 385" fill="none" xmlns="http://www.w3.org/2000/svg">
<path d="M475.142 152.042V171.41C469.546 173.885 463.949 175.068 458.352 175.068C450.818 175.068 444.791 172.809 440.163 168.397C435.643 163.985 433.383 158.498 433.383 152.042C433.383 145.263 435.75 139.56 440.378 135.041C445.114 130.521 450.926 128.262 458.029 128.262C460.612 128.262 463.088 128.584 465.348 129.122C467.608 129.66 470.622 130.736 474.066 132.135V138.807C468.577 135.686 463.195 134.072 457.814 134.072C452.863 134.072 448.666 135.794 445.222 139.129C441.778 142.465 440.056 146.662 440.056 151.611C440.056 156.776 441.778 161.08 445.222 164.308C448.666 167.644 453.078 169.258 458.46 169.258C461.043 169.258 464.164 168.612 467.823 167.429L468.469 167.214V157.852H459.644V152.042H475.142Z" fill="white"/>
<path d="M508.184 128.262C515.287 128.262 521.099 130.521 525.835 134.933C530.57 139.452 532.831 145.048 532.831 151.719C532.831 158.39 530.463 163.985 525.727 168.397C520.992 172.809 514.964 175.068 507.753 175.068C500.865 175.068 495.161 172.809 490.533 168.397C485.905 163.985 483.645 158.498 483.645 151.826C483.645 145.048 485.905 139.345 490.533 134.933C495.269 130.521 501.08 128.262 508.184 128.262ZM508.399 134.395C503.125 134.395 498.82 136.009 495.484 139.345C492.147 142.68 490.425 146.769 490.425 151.826C490.425 156.776 492.147 160.865 495.484 164.093C498.82 167.321 503.125 169.043 508.184 169.043C513.242 169.043 517.547 167.429 520.992 164.093C524.436 160.757 526.158 156.561 526.158 151.611C526.158 146.769 524.436 142.68 520.992 139.345C517.547 136.117 513.35 134.395 508.399 134.395Z" fill="white"/>
<path d="M557.477 174.53H541.979V128.8H553.926C557.693 128.8 560.599 129.338 562.751 130.306C564.904 131.274 566.518 132.673 567.594 134.503C568.671 136.332 569.209 138.376 569.209 140.636C569.209 145.155 566.841 148.383 562.213 150.32C565.549 150.966 568.24 152.364 570.177 154.409C572.115 156.561 573.191 159.036 573.191 162.049C573.191 164.416 572.545 166.46 571.361 168.29C570.177 170.119 568.348 171.625 566.088 172.809C563.935 173.992 561.029 174.53 557.477 174.53ZM554.249 134.718H548.652V148.491H552.957C556.401 148.491 558.877 147.845 560.383 146.446C561.89 145.155 562.644 143.433 562.644 141.281C562.536 136.87 559.738 134.718 554.249 134.718ZM554.679 154.301H548.544V168.828H555.002C558.554 168.828 561.029 168.505 562.321 167.967C563.612 167.429 564.581 166.568 565.442 165.384C566.195 164.201 566.626 162.909 566.626 161.618C566.626 160.219 566.195 158.928 565.442 157.745C564.581 156.561 563.504 155.7 561.998 155.162C560.276 154.516 557.908 154.301 554.679 154.301Z" fill="white"/>
<path d="M580.94 128.907H587.505V174.638H580.94V128.907Z" fill="white"/>
<path d="M598.806 128.907H624.745V134.718H605.372V148.598H624.099V154.409H605.372V168.612H625.39V174.423H598.914V128.907H598.806Z" fill="white"/>
<path d="M633.57 174.53V128.8H644.979C649.607 128.8 653.266 129.983 655.957 132.243C658.647 134.503 660.047 137.623 660.047 141.497C660.047 144.187 659.401 146.446 658.002 148.383C656.71 150.32 654.773 151.826 652.297 152.687C653.804 153.656 655.203 154.947 656.603 156.561C658.002 158.175 659.939 161.08 662.522 165.277C664.136 167.859 665.428 169.796 666.397 171.087L668.764 174.315H661.015L658.97 171.302C658.863 171.195 658.755 170.98 658.54 170.764L657.248 168.935L655.203 165.599L653.051 162.049C651.652 160.219 650.468 158.713 649.391 157.529C648.315 156.453 647.239 155.593 646.378 155.162C645.517 154.624 643.902 154.409 641.858 154.409H640.135V174.315H633.57V174.53ZM642.073 134.395H640.135V148.814H642.611C645.947 148.814 648.208 148.491 649.391 147.953C650.575 147.415 651.544 146.554 652.297 145.37C653.051 144.187 653.374 142.895 653.374 141.497C653.374 140.098 652.943 138.807 652.19 137.623C651.436 136.439 650.36 135.686 648.961 135.148C647.562 134.718 645.302 134.395 642.073 134.395Z" fill="white"/>
<path d="M711.277 128.907H717.52V174.638H711.923L681.357 139.345V174.53H675.222V128.8H680.496L711.277 164.308V128.907Z" fill="white"/>
<path d="M750.884 128.262C757.988 128.262 763.8 130.521 768.535 134.933C773.271 139.452 775.531 145.048 775.531 151.719C775.531 158.39 773.163 163.985 768.428 168.397C763.692 172.809 757.665 175.068 750.454 175.068C743.566 175.068 737.861 172.809 733.233 168.397C728.605 163.985 726.345 158.498 726.345 151.826C726.345 145.048 728.605 139.345 733.233 134.933C737.969 130.521 743.781 128.262 750.884 128.262ZM751.1 134.395C745.826 134.395 741.521 136.009 738.184 139.345C734.848 142.68 733.126 146.769 733.126 151.826C733.126 156.776 734.848 160.865 738.184 164.093C741.521 167.321 745.826 169.043 750.884 169.043C755.943 169.043 760.248 167.429 763.692 164.093C767.136 160.757 768.858 156.561 768.858 151.611C768.858 146.769 767.136 142.68 763.692 139.345C760.248 136.117 756.051 134.395 751.1 134.395Z" fill="white"/>
<path d="M435.105 245.763V200.14H450.495C456.738 200.14 461.581 201.108 465.24 202.937C468.9 204.767 471.698 207.564 473.851 211.115C476.003 214.774 477.079 218.647 477.079 222.951C477.079 225.964 476.541 228.977 475.357 231.667C474.173 234.465 472.451 236.94 470.299 238.984C468.039 241.136 465.456 242.858 462.55 243.934C460.828 244.579 459.213 245.01 457.814 245.333C456.415 245.548 453.617 245.655 449.527 245.655H435.105V245.763ZM449.85 206.058H441.67V240.06H450.065C453.294 240.06 455.877 239.845 457.706 239.414C459.536 238.984 461.043 238.446 462.227 237.693C463.411 236.94 464.595 236.186 465.563 235.11C468.792 231.882 470.407 227.686 470.407 222.736C470.407 217.786 468.792 213.805 465.456 210.685C464.272 209.501 462.873 208.533 461.258 207.887C459.644 207.134 458.137 206.703 456.738 206.381C455.231 206.165 452.971 206.058 449.85 206.058Z" fill="white"/>
<path d="M486.443 200.14H512.381V205.95H493.008V219.831H511.736V225.641H493.008V239.845H513.027V245.655H486.551V200.14H486.443Z" fill="white"/>
<path d="M540.795 200.14H566.733V205.95H547.36V219.831H566.088V225.641H547.36V239.845H567.271V245.655H540.795V200.14Z" fill="white"/>
<path d="M586.752 226.717L581.801 223.705C578.68 221.768 576.42 219.939 575.128 218.109C573.837 216.28 573.191 214.128 573.191 211.761C573.191 208.21 574.483 205.197 576.958 203.045C579.433 200.785 582.662 199.709 586.644 199.709C590.411 199.709 593.963 200.785 597.192 202.937V210.362C593.856 207.241 590.304 205.627 586.537 205.627C584.384 205.627 582.662 206.165 581.263 207.134C579.864 208.102 579.218 209.394 579.218 210.9C579.218 212.299 579.756 213.59 580.725 214.774C581.694 215.957 583.416 217.248 585.568 218.54L590.519 221.445C596.116 224.781 598.914 228.977 598.914 234.142C598.914 237.8 597.73 240.813 595.255 243.073C592.779 245.333 589.658 246.516 585.676 246.516C581.155 246.516 577.066 245.117 573.299 242.32V234.034C576.85 238.554 580.94 240.706 585.568 240.706C587.613 240.706 589.335 240.168 590.734 238.984C592.133 237.8 592.779 236.402 592.779 234.68C592.779 231.882 590.734 229.192 586.752 226.717Z" fill="white"/>
<path d="M606.878 245.871V200.14H621.408C625.821 200.14 629.265 201.323 631.848 203.691C634.431 206.058 635.723 209.178 635.723 213.16C635.723 215.85 635.077 218.217 633.678 220.261C632.386 222.306 630.557 223.812 628.189 224.673C625.929 225.641 622.592 226.072 618.287 226.072H613.444V245.871H606.878ZM620.224 205.95H613.444V220.261H620.655C623.346 220.261 625.39 219.616 626.79 218.432C628.189 217.141 628.942 215.419 628.942 213.052C628.942 208.317 626.036 205.95 620.224 205.95Z" fill="white"/>
<path d="M651.759 199.925H656.387L676.837 245.871H670.164L664.029 232.313H644.548L638.844 245.871H632.171L651.759 199.925ZM661.338 226.502L654.019 209.932L647.131 226.502H661.338Z" fill="white"/>
<path d="M719.242 200.14H725.484V245.871H719.888L689.321 210.685V245.871H683.187V200.14H688.46L719.242 235.648V200.14ZM714.721 187.766C714.721 190.456 714.076 192.5 712.892 193.899C711.923 195.082 710.847 195.62 709.448 195.62C708.264 195.62 706.649 195.19 704.604 194.329C702.56 193.468 701.053 193.038 699.976 193.038C699.438 193.038 698.9 193.253 698.47 193.684C698.039 194.114 697.824 194.76 697.716 195.62H694.918C695.241 192.5 695.887 190.456 696.855 189.487C697.824 188.411 698.9 187.981 700.299 187.981C701.591 187.981 703.636 188.519 706.434 189.702C707.941 190.24 708.91 190.563 709.555 190.563C710.201 190.563 710.632 190.348 711.062 189.918C711.493 189.487 711.816 188.734 711.923 187.766H714.721Z" fill="white"/>
<path d="M750.992 199.925H755.62L776.069 245.871H769.396L763.262 232.313H743.781L738.077 245.871H731.404L750.992 199.925ZM760.571 226.502L753.252 209.932L746.364 226.502H760.571Z" fill="white"/>
<path d="M997.675 128.907H1003.81V174.638H997.244V139.129L983.145 156.776H981.961L967.754 139.129V174.638H961.189V128.907H967.431L982.607 147.63L997.675 128.907Z" fill="white"/>
<path d="M1014.79 128.907H1021.35V174.638H1014.79V128.907Z" fill="white"/>
<path d="M1068.92 128.907H1075.17V174.638H1069.57L1039 139.452V174.638H1032.87V128.907H1038.14L1068.92 164.416V128.907Z" fill="white"/>
<path d="M1086.14 128.907H1092.71V174.638H1086.14V128.907Z" fill="white"/>
<path d="M1115.31 155.377L1110.36 152.364C1107.24 150.428 1104.98 148.598 1103.69 146.769C1102.4 144.94 1101.75 142.788 1101.75 140.421C1101.75 136.87 1103.04 133.857 1105.52 131.705C1107.99 129.445 1111.22 128.369 1115.2 128.369C1118.97 128.369 1122.52 129.445 1125.75 131.597V139.022C1122.42 135.901 1118.86 134.287 1115.1 134.287C1112.94 134.287 1111.22 134.825 1109.82 135.794C1108.42 136.762 1107.78 138.053 1107.78 139.56C1107.78 140.959 1108.32 142.25 1109.28 143.433C1110.25 144.617 1111.98 145.908 1114.13 147.2L1119.08 150.105C1124.68 153.44 1127.47 157.637 1127.47 162.802C1127.47 166.46 1126.29 169.473 1123.81 171.733C1121.34 173.992 1118.22 175.176 1114.24 175.176C1109.72 175.176 1105.63 173.777 1101.86 170.98V162.694C1105.41 167.214 1109.5 169.366 1114.13 169.366C1116.17 169.366 1117.89 168.828 1119.29 167.644C1120.69 166.46 1121.34 165.061 1121.34 163.34C1121.34 160.542 1119.29 157.96 1115.31 155.377Z" fill="white"/>
<path d="M1131.89 128.8H1170.09V134.61H1154.17V174.53H1147.6V134.61H1131.89V128.8Z" fill="white"/>
<path d="M1177.41 128.907H1203.35V134.718H1183.98V148.598H1202.71V154.409H1183.98V168.612H1204V174.423H1177.52V128.907H1177.41Z" fill="white"/>
<path d="M1212.18 174.53V128.8H1223.59C1228.21 128.8 1231.87 129.983 1234.56 132.243C1237.25 134.503 1238.65 137.623 1238.65 141.497C1238.65 144.187 1238.01 146.446 1236.61 148.383C1235.32 150.32 1233.38 151.826 1230.9 152.687C1232.41 153.656 1233.81 154.947 1235.21 156.561C1236.61 158.175 1238.55 161.08 1241.13 165.277C1242.74 167.859 1244.03 169.796 1245 171.087L1247.37 174.315H1239.62L1237.58 171.302C1237.47 171.195 1237.36 170.98 1237.15 170.764L1235.85 168.935L1233.81 165.599L1231.66 162.049C1230.26 160.219 1229.07 158.713 1228 157.529C1226.92 156.453 1225.85 155.593 1224.98 155.162C1224.12 154.624 1222.51 154.409 1220.46 154.409H1218.74V174.315H1212.18V174.53ZM1220.68 134.395H1218.74V148.814H1221.22C1224.55 148.814 1226.81 148.491 1228 147.953C1229.18 147.415 1230.15 146.554 1230.9 145.37C1231.66 144.187 1231.98 142.895 1231.98 141.497C1231.98 140.098 1231.55 138.807 1230.8 137.623C1230.04 136.439 1228.97 135.686 1227.57 135.148C1226.17 134.718 1223.91 134.395 1220.68 134.395Z" fill="white"/>
<path d="M1253.72 128.907H1260.29V174.638H1253.72V128.907Z" fill="white"/>
<path d="M1293.87 128.262C1300.97 128.262 1306.78 130.521 1311.52 134.933C1316.25 139.345 1318.51 145.048 1318.51 151.719C1318.51 158.39 1316.15 163.985 1311.41 168.397C1306.67 172.809 1300.65 175.068 1293.44 175.068C1286.55 175.068 1280.84 172.809 1276.22 168.397C1271.59 163.985 1269.33 158.498 1269.33 151.826C1269.33 145.048 1271.59 139.345 1276.22 134.933C1280.84 130.521 1286.87 128.262 1293.87 128.262ZM1294.19 134.395C1288.92 134.395 1284.61 136.009 1281.27 139.345C1277.94 142.573 1276.22 146.769 1276.22 151.826C1276.22 156.776 1277.94 160.865 1281.27 164.093C1284.61 167.321 1288.92 169.043 1293.97 169.043C1299.03 169.043 1303.34 167.429 1306.78 164.093C1310.23 160.757 1311.95 156.561 1311.95 151.611C1311.95 146.769 1310.23 142.68 1306.78 139.345C1303.34 136.009 1299.14 134.395 1294.19 134.395Z" fill="white"/>
<path d="M961.404 245.763V200.14H976.795C983.037 200.14 987.881 201.108 991.54 202.937C995.199 204.767 997.998 207.564 1000.15 211.115C1002.3 214.774 1003.38 218.647 1003.38 222.951C1003.38 225.964 1002.84 228.977 1001.66 231.667C1000.47 234.357 998.751 236.94 996.599 238.984C994.338 241.136 991.755 242.858 988.849 243.934C987.127 244.579 985.513 245.01 984.114 245.333C982.715 245.548 979.916 245.655 975.826 245.655H961.404V245.763ZM976.149 206.058H967.97V240.06H976.364C979.593 240.06 982.176 239.845 984.006 239.414C985.836 238.984 987.343 238.446 988.526 237.693C989.71 237.047 990.894 236.186 991.863 235.11C995.092 231.882 996.706 227.686 996.706 222.736C996.706 217.786 995.092 213.805 991.755 210.685C990.571 209.501 989.172 208.533 987.558 207.887C985.943 207.134 984.437 206.703 983.037 206.381C981.531 206.165 979.27 206.058 976.149 206.058Z" fill="white"/>
<path d="M1012.74 200.14H1038.68V205.95H1019.31V219.831H1038.04V225.641H1019.31V239.845H1039.33V245.655H1012.85V200.14H1012.74Z" fill="white"/>
<path d="M1067.09 200.14H1073.66V245.225C1073.66 249.421 1073.23 252.542 1072.37 254.586C1071.51 256.631 1070.11 258.245 1068.17 259.428C1066.23 260.612 1063.97 261.258 1061.28 261.258C1060.85 261.258 1060.21 261.15 1059.13 261.042L1057.95 254.909H1059.67C1061.5 254.909 1063 254.694 1063.97 254.264C1064.94 253.833 1065.8 252.972 1066.34 251.896C1066.88 250.713 1067.2 248.238 1067.2 244.579V200.14H1067.09Z" fill="white"/>
<path d="M1116.71 200.14H1123.28V226.072C1123.28 229.623 1123.06 232.205 1122.52 234.034C1121.98 235.864 1121.34 237.262 1120.59 238.446C1119.83 239.63 1118.86 240.706 1117.79 241.674C1114.13 244.795 1109.39 246.301 1103.58 246.301C1097.66 246.301 1092.82 244.795 1089.27 241.674C1088.19 240.706 1087.22 239.63 1086.47 238.446C1085.71 237.262 1085.07 235.756 1084.64 234.034C1084.1 232.313 1083.88 229.623 1083.88 225.964V200.14H1090.45V226.072C1090.45 230.376 1090.99 233.389 1091.96 235.003C1092.93 236.724 1094.43 238.016 1096.48 239.092C1098.52 240.06 1100.89 240.598 1103.58 240.598C1107.46 240.598 1110.58 239.63 1113.05 237.585C1114.34 236.509 1115.31 235.218 1115.85 233.712C1116.39 232.205 1116.71 229.73 1116.71 226.072V200.14Z" fill="white"/>
<path d="M1144.8 226.717L1139.85 223.705C1136.73 221.768 1134.47 219.939 1133.18 218.109C1131.89 216.28 1131.24 214.128 1131.24 211.761C1131.24 208.21 1132.53 205.197 1135.01 203.045C1137.48 200.785 1140.71 199.709 1144.69 199.709C1148.46 199.709 1152.01 200.785 1155.24 202.937V210.362C1151.91 207.241 1148.35 205.627 1144.59 205.627C1142.43 205.627 1140.71 206.165 1139.31 207.134C1137.91 208.102 1137.27 209.394 1137.27 210.9C1137.27 212.299 1137.81 213.59 1138.77 214.774C1139.74 215.957 1141.47 217.248 1143.62 218.54L1148.57 221.445C1154.17 224.781 1156.96 228.977 1156.96 234.142C1156.96 237.8 1155.78 240.813 1153.3 243.073C1150.83 245.333 1147.71 246.516 1143.73 246.516C1139.21 246.516 1135.12 245.117 1131.35 242.32V234.034C1134.9 238.554 1138.99 240.706 1143.62 240.706C1145.66 240.706 1147.38 240.168 1148.78 238.984C1150.18 237.8 1150.83 236.402 1150.83 234.68C1150.83 231.882 1148.89 229.192 1144.8 226.717Z" fill="white"/>
<path d="M1161.48 200.14H1199.69V205.95H1183.76V245.871H1177.2V205.95H1161.48V200.14Z" fill="white"/>
<path d="M1207.01 200.14H1213.58V245.871H1207.01V200.14Z" fill="white"/>
<path d="M1264.16 235.326V242.535C1259.32 245.117 1253.83 246.409 1247.59 246.409C1242.53 246.409 1238.12 245.333 1234.56 243.288C1231.01 241.244 1228.21 238.446 1226.17 234.788C1224.12 231.237 1223.05 227.255 1223.05 223.167C1223.05 216.495 1225.42 210.9 1230.15 206.381C1234.89 201.861 1240.7 199.602 1247.69 199.602C1252.54 199.602 1257.81 200.893 1263.73 203.368V210.362C1258.35 207.349 1253.18 205.735 1248.02 205.735C1242.74 205.735 1238.44 207.349 1234.99 210.685C1231.55 214.02 1229.83 218.109 1229.83 223.059C1229.83 228.116 1231.55 232.205 1234.89 235.433C1238.33 238.661 1242.64 240.275 1247.91 240.275C1253.51 240.383 1258.89 238.661 1264.16 235.326Z" fill="white"/>
<path d="M1273.42 200.14H1279.98V245.871H1273.42V200.14Z" fill="white"/>
<path d="M1305.92 199.925H1310.55L1331 245.871H1324.32L1318.19 232.313H1298.71L1293.01 245.871H1286.33L1305.92 199.925ZM1315.5 226.502L1308.18 209.932L1301.29 226.502H1315.5Z" fill="white"/>
</svg>
