<svg width="1159" height="309" viewBox="0 0 1159 309" fill="none" xmlns="http://www.w3.org/2000/svg">
<path d="M474.3 201.6C474.3 174.1 474.3 146.7 474.3 119.2C474.3 117.4 474.2 115.6 474.5 113.9C475.4 107.3 478.8 102.6 485.3 100.4C506 93.2 527.2 88.4 549.1 86.6C564.5 85.3 579.9 85.4 595.2 87.7C606.4 89.4 617.2 92.4 627.2 97.7C646.8 108 657.7 124.5 661.4 146.1C662.4 151.7 662.7 157.3 662.7 162.9C662.7 203.9 662.7 244.8 662.7 285.8C662.7 286.6 662.7 287.4 662.7 288.2C662.5 294 659.9 296.8 654.1 296.9C641.9 297 629.7 297 617.5 296.9C612 296.9 609.3 294.1 608.9 288.6C608.8 287.2 608.9 285.7 608.9 284.3C608.9 247 608.9 209.8 608.9 172.5C608.9 167.7 608.6 162.8 607.1 158.2C603 146 593.9 139.6 581.9 136.9C572 134.7 562.1 135.4 552.1 136.4C547.5 136.8 542.9 137.8 538.4 138.9C530.6 140.7 528.3 143.7 528.3 151.7C528.3 196 528.3 240.4 528.3 284.7C528.3 286 528.3 287.3 528.3 288.6C528.1 294 525.3 296.9 519.8 297C513.4 297.1 506.9 297 500.5 297C494.9 297 489.2 297.1 483.6 297C477 296.9 474.3 294.1 474.3 287.5C474.3 258.8 474.3 230.2 474.3 201.6Z" fill="white"/>
<path d="M166.2 296.9C160.1 296.9 154 297 147.9 296.9C141.7 296.8 139.6 294 141.3 287.8C142.5 283.3 143.5 278.8 143.6 274.1C143.8 262.2 138.9 253 129.4 246.2C122.4 241.2 114.6 237.8 106.5 235.2C93.1 230.9 79.5 226.9 66.1 222.6C55.2 219.1 44.8 214.7 35.3 208.2C19.3 197.2 11.3 182 10.4 162.7C8.69999 127.8 28.1 102.1 60 90.7C74.7 85.5 90 83.7 105.5 84.1C130.2 84.8 153.9 89.7 176.3 100.3C179.5 101.8 182.6 103.4 185.7 105.2C192.1 108.8 193.7 113.3 191 120.1C190 122.6 188.8 125.1 187.7 127.6C184.6 134.1 181.6 140.7 178.4 147.2C174.8 154.6 169 156.6 161.8 152.7C149.8 146.2 137.4 140.6 124 137.4C110.9 134.3 97.7 133 84.4 136C80.3 136.9 76.4 138.4 72.9 140.8C62.7 147.9 62.3 160.3 72 168C76.3 171.4 81.3 173.6 86.5 175.5C99 180.1 112 183.2 124.7 187.1C136.5 190.7 148.2 194.8 159.1 200.7C166.6 204.8 173.6 209.6 179.6 215.7C192.3 228.6 197.8 244.5 198.3 262.3C198.6 270.3 197.9 278.3 195.7 286.1C195.4 287.3 195 288.6 194.6 289.8C192.6 295.2 190.2 296.9 184.5 297C178.4 297 172.3 296.9 166.2 296.9Z" fill="white"/>
<path d="M950.9 187.1C950.9 155.3 950.8 123.5 950.9 91.7C950.9 77.6 953.1 63.9 958.7 50.8C968.5 28.1 986.3 15.1 1010 9.8C1026.7 6.1 1043.5 6.1 1060.2 9.6C1060.5 9.7 1060.8 9.7 1061.1 9.8C1069.3 11.7 1071.1 14.4 1069.5 22.8C1068.1 30.1 1066.8 37.3 1065.4 44.5C1064 52 1061.4 53.9 1053.7 52.8C1047.7 52 1041.6 50.9 1035.5 51C1032.1 51.1 1028.7 51.5 1025.5 52.3C1013.3 55.2 1006.2 64.1 1004.8 77.6C1004.5 80.5 1004.4 83.4 1004.3 86.3C1004.2 89.7 1004.2 89.8 1007.6 89.8C1016.8 89.8 1025.9 89.8 1035.1 89.8C1041.9 89.8 1048.6 89.8 1055.4 89.8C1062.7 89.8 1065.2 92.4 1065.3 99.7C1065.4 108.4 1065.4 117 1065.3 125.7C1065.3 133 1062.7 135.4 1055.3 135.4C1040 135.4 1024.8 135.4 1009.5 135.4C1008.4 135.4 1007.3 135.4 1006.1 135.4C1004.9 135.4 1004.4 136 1004.4 137.2C1004.4 138.5 1004.4 139.8 1004.4 141.1C1004.4 189.1 1004.3 237.1 1004.5 285.2C1004.5 293.2 1002.5 297.2 992.9 296.9C982.3 296.6 971.7 296.6 961.1 296.9C953.7 297.1 950.8 292.8 950.9 286.7C951 253.6 950.9 220.3 950.9 187.1Z" fill="white"/>
<path d="M1149.7 193.3C1149.7 223.6 1149.7 254 1149.7 284.3C1149.7 285.3 1149.7 286.2 1149.7 287.2C1149.6 294.4 1147.1 296.9 1139.7 296.9C1130.4 296.9 1121.1 296.9 1111.7 296.9C1109.1 296.9 1106.6 297 1104 296.9C1099.1 296.7 1096.3 294.1 1095.8 289.2C1095.6 287.8 1095.7 286.3 1095.7 284.9C1095.7 223.9 1095.7 162.9 1095.7 101.8C1095.7 92 1097.9 89.9 1107.5 89.9C1118.3 89.9 1129 89.9 1139.8 89.9C1147 89.9 1149.6 92.5 1149.7 99.8C1149.7 131 1149.7 162.1 1149.7 193.3Z" fill="white"/>
<path d="M1151.4 36C1151.5 49.7 1144.7 59.7 1132.8 63.1C1126.2 65 1119.5 64.9 1112.9 63C1099.6 59.1 1093.5 48 1093.9 34.1C1094 31.9 1094.3 29.6 1094.8 27.4C1097.3 17.1 1103.7 10.5 1114 8.1C1120.8 6.5 1127.7 6.8 1134.4 9.2C1144.9 13 1150 20.9 1151.3 31.7C1151.5 33.1 1151.4 34.6 1151.4 36Z" fill="white"/>
<path d="M64.7 272.3C64.5 275.4 64.4 278.2 63.7 281.1C60.8 292 53.7 298.4 42.8 300.5C37.1 301.6 31.3 301.3 25.7 299.5C16.8 296.6 10.8 290.8 8.39999 281.7C6.59999 274.9 6.69999 268 8.89999 261.3C11.8 252.6 17.9 247.1 26.8 244.8C33 243.2 39.2 243.4 45.4 245C56.2 247.8 63.5 256.5 64.5 267.7C64.6 269.3 64.7 270.9 64.7 272.3Z" fill="white"/>
<path d="M424 116.2C423.6 108.5 420.2 103.1 412.6 100.7C412.1 100.6 411.7 100.4 411.2 100.2C391.2 92.8 370.7 88 349.4 86.4C334.3 85.3 319.2 85.2 304.4 88.7C267.9 97.3 242.9 118.9 231.3 154.8C222.3 182.7 223.3 210.9 232.6 238.5C239.5 259.1 252.3 275.4 271.3 286.5C286.3 295.3 302.7 299.5 319.8 300.5C339.5 301.7 358.9 300.2 378.2 295.8C390.3 293 402 289.2 413.4 284.4C419.8 281.7 423.3 277 423.9 270.1C424 268.5 424 266.9 424 265.3C424 241.1 424 216.8 424 192.6C424 168.5 424 144.4 424 120.4C424 119.1 424.1 117.6 424 116.2ZM362.5 246.6C347.3 251.4 331.7 253.4 316 249.3C300.4 245.2 289.8 235.2 284.6 220.1C278.5 202.6 278.4 184.7 284.5 167.2C291.3 147.8 305.8 137.7 326.1 135.9C336.9 135 347.6 136 358.1 138.8C359.3 139.1 360.6 139.5 361.8 139.9C368 142.2 370.1 145.1 370.2 151.8C370.3 165.8 370.2 179.7 370.2 193.7C370.2 207.5 370.1 221.3 370.2 235.1C370.2 240.9 367.8 244.9 362.5 246.6Z" fill="white"/>
<path d="M906.4 159.2C897.2 127.2 877.6 104.4 846.2 92.7C826.2 85.3 805.5 83.9 784.5 87.7C752.9 93.4 729 110.2 714.8 139.1C699 171.3 698.2 204.7 710.6 238.1C721.3 267 742.1 286 771.3 295.6C788.8 301.3 806.9 302.5 825.1 299.8C857.6 295.1 882.2 278.6 897.8 249.6C907.2 232.1 910.8 213.2 910.9 189.3C910.8 181.8 909.6 170.4 906.4 159.2ZM851.3 221.5C843.2 243.6 823.9 253 802.7 251C797.2 250.5 791.9 249.5 786.8 247.4C774.5 242.3 766.2 233.3 761.8 220.9C755.3 202.4 755.3 183.7 762 165.3C769 146 785.2 135.3 805.8 135.6C810.6 135.7 815.4 136.1 820.1 137.3C835.4 141.3 845.9 150.8 851.3 165.4C858.1 184.1 858.1 203 851.3 221.5Z" fill="white"/>
</svg>
