<svg width="31" height="38" viewBox="0 0 31 38" fill="none" xmlns="http://www.w3.org/2000/svg">
<path d="M3.02883 37.75C2.16586 37.75 1.44531 37.4609 0.867188 36.8828C0.289062 36.3047 0 35.5841 0 34.7212V3.27883C0 2.41586 0.289062 1.69531 0.867188 1.11719C1.44531 0.539062 2.16586 0.25 3.02883 0.25H15.1442V2.125H3.02883C2.74039 2.125 2.47597 2.24519 2.23556 2.48556C1.99519 2.72597 1.875 2.99039 1.875 3.27883V4.9375H15.1442V6.8125H1.875V31.1875H20.625V27.4375H22.5V34.7212C22.5 35.5841 22.2109 36.3047 21.6328 36.8828C21.0547 37.4609 20.3341 37.75 19.4712 37.75H3.02883ZM1.875 33.0625V34.7212C1.875 35.0096 1.99519 35.274 2.23556 35.5144C2.47597 35.7548 2.74039 35.875 3.02883 35.875H19.4712C19.7596 35.875 20.024 35.7548 20.2644 35.5144C20.5048 35.274 20.625 35.0096 20.625 34.7212V33.0625H1.875ZM22.5 21.4159L14.4231 13.339L15.75 12.012L21.5625 17.8245V3.0625H23.4375V17.8245L29.25 12.012L30.5769 13.339L22.5 21.4159Z" fill="white" fill-opacity="0.5"/>
</svg>
