<svg width="46" height="35" viewBox="0 0 46 35" fill="none" xmlns="http://www.w3.org/2000/svg">
<path d="M30.3558 0.593607C29.5643 -0.197869 28.2802 -0.197869 27.4887 0.593607L24.9795 3.10266C24.188 3.89414 24.188 5.17825 24.9795 5.96973L34.1181 15.108C35.207 16.1968 35.207 17.9617 34.1181 19.0505L30.8929 22.2756C29.804 23.3645 28.039 23.3645 26.9501 22.2756L17.8115 13.1374C17.02 12.3459 15.7358 12.3459 14.9443 13.1374L12.4352 15.6464C11.6436 16.4379 11.6436 17.722 12.4352 18.5135L27.4872 33.5649C28.2787 34.3564 29.5629 34.3564 30.3544 33.5649L45.4064 18.5135C46.1979 17.722 46.1979 16.4379 45.4064 15.6464L30.3558 0.593607Z" fill="url(#paint0_linear_23_20)"/>
<path d="M15.4364 33.5649C16.2173 34.3564 17.4843 34.3564 18.2652 33.5649L20.7408 31.0558C21.5217 30.2643 21.5217 28.9802 20.7408 28.1888L11.7244 19.0505C10.6501 17.9617 10.6501 16.1968 11.7244 15.1079L14.9065 11.8829C15.9808 10.794 17.7222 10.794 18.7965 11.8829L27.8129 21.0211C28.5938 21.8126 29.8608 21.8126 30.6418 21.0211L33.1173 18.512C33.8983 17.7206 33.8983 16.4364 33.1173 15.645L18.2652 0.593607C17.4843 -0.197869 16.2173 -0.197869 15.4364 0.593607L0.585692 15.645C-0.195231 16.4364 -0.195231 17.7206 0.585692 18.512L15.4364 33.5634V33.5649Z" fill="url(#paint1_linear_23_20)"/>
<defs>
<linearGradient id="paint0_linear_23_20" x1="14.5271" y1="10.365" x2="51.9273" y2="27.8068" gradientUnits="userSpaceOnUse">
<stop stop-color="#4BA2D8"/>
<stop offset="1" stop-color="#006FB5"/>
</linearGradient>
<linearGradient id="paint1_linear_23_20" x1="2.64821" y1="10.3665" x2="39.7241" y2="27.4258" gradientUnits="userSpaceOnUse">
<stop stop-color="#008786"/>
<stop offset="1" stop-color="#90AEAE"/>
</linearGradient>
</defs>
</svg>
